<svg version="1.1" xmlns="http://www.w3.org/2000/svg" xmlns:xlink="http://www.w3.org/1999/xlink" width="1012" height="724"><defs/><g><g transform="translate(-174,-46) scale(1,1)"><rect fill="#C0C0C0" stroke="none" x="799" y="143" width="153.60000000000002" height="15" opacity="0.2"/></g><g transform="translate(-174,-46) scale(1,1)"><rect fill="#C0C0C0" stroke="none" x="799" y="157" width="384" height="314" opacity="0.2"/></g><g transform="translate(-174,-46) scale(1,1)"><rect fill="#ffc082" stroke="none" x="792" y="151" width="384" height="313"/></g><g transform="translate(-174,-46) scale(1,1)"><path fill="none" stroke="#000000" d="M 792 151 L 1176 151 L 1176 464 L 792 464 L 792 151 Z Z" stroke-miterlimit="10"/></g><g transform="translate(-174,-46) scale(1,1)"><rect fill="#ffc082" stroke="none" x="792" y="136" width="153.60000000000002" height="15"/></g><g transform="translate(-174,-46) scale(1,1)"><path fill="none" stroke="#000000" d="M 792 136 L 945.6 136 L 945.6 151 L 792 151 L 792 136 Z Z" stroke-miterlimit="10"/></g><g transform="translate(-174,-46) scale(1,1)"><rect fill="#ffc082" stroke="none" x="792" y="150" width="384" height="314"/></g><g transform="translate(-174,-46) scale(1,1)"><path fill="none" stroke="#000000" d="M 792 150 L 1176 150 L 1176 464 L 792 464 L 792 150 Z Z" stroke-miterlimit="10"/></g><g transform="translate(-174,-46) scale(1,1)"><g><path fill="none" stroke="none"/><text fill="#000000" stroke="none" font-family="Arial" font-size="13px" font-style="normal" font-weight="bold" text-decoration="none" x="882.827880859375" y="170.5">IdeaStatiCa.ConnHiddenCalculator</text></g></g><g transform="translate(-174,-46) scale(1,1)"><rect fill="#C0C0C0" stroke="none" x="191" y="87" width="192" height="15" opacity="0.2"/></g><g transform="translate(-174,-46) scale(1,1)"><rect fill="#C0C0C0" stroke="none" x="191" y="101" width="480" height="354" opacity="0.2"/></g><g transform="translate(-174,-46) scale(1,1)"><rect fill="#a3ffa3" stroke="none" x="184" y="95" width="480" height="353"/></g><g transform="translate(-174,-46) scale(1,1)"><path fill="none" stroke="#000000" d="M 184 95 L 664 95 L 664 448 L 184 448 L 184 95 Z Z" stroke-miterlimit="10"/></g><g transform="translate(-174,-46) scale(1,1)"><rect fill="#a3ffa3" stroke="none" x="184" y="80" width="192" height="15"/></g><g transform="translate(-174,-46) scale(1,1)"><path fill="none" stroke="#000000" d="M 184 80 L 376 80 L 376 95 L 184 95 L 184 80 Z Z" stroke-miterlimit="10"/></g><g transform="translate(-174,-46) scale(1,1)"><rect fill="#a3ffa3" stroke="none" x="184" y="94" width="480" height="354"/></g><g transform="translate(-174,-46) scale(1,1)"><path fill="none" stroke="#000000" d="M 184 94 L 664 94 L 664 448 L 184 448 L 184 94 Z Z" stroke-miterlimit="10"/></g><g transform="translate(-174,-46) scale(1,1)"><g><path fill="none" stroke="none"/><text fill="#000000" stroke="none" font-family="Arial" font-size="13px" font-style="normal" font-weight="bold" text-decoration="none" x="370.1591796875" y="114.5">IdeaStatiCa.Plugin</text></g></g><g transform="translate(-174,-46) scale(1,1)"><rect fill="#C0C0C0" stroke="none" x="863" y="335" width="249.6142578125" height="59" opacity="0.2"/></g><g transform="translate(-174,-46) scale(1,1)"><rect fill="#ffffff" stroke="none" x="856" y="328" width="249.6142578125" height="59"/></g><g transform="translate(-174,-46) scale(1,1)"><path fill="none" stroke="#000000" d="M 856 328 L 1105.6142578125 328 L 1105.6142578125 387 L 856 387 L 856 328 Z Z" stroke-miterlimit="10"/></g><g transform="translate(-174,-46) scale(1,1)"><path fill="none" stroke="#000000" d="M 856 368 L 1105.6142578125 368" stroke-miterlimit="10"/></g><g transform="translate(-174,-46) scale(1,1)"><path fill="none" stroke="#000000" d="M 856 378 L 1105.6142578125 378" stroke-miterlimit="10"/></g><g transform="translate(-174,-46) scale(1,1)"><g><path fill="none" stroke="none"/><text fill="#000000" stroke="none" font-family="Arial" font-size="13px" font-style="normal" font-weight="bold" text-decoration="none" x="913.245849609375" y="347.5">ConnectionCalcService</text></g></g><g transform="translate(-174,-46) scale(1,1)"><g><path fill="none" stroke="none"/><text fill="#000000" stroke="none" font-family="Arial" font-size="13px" font-style="normal" font-weight="normal" text-decoration="none" x="860.5" y="362.5">(from IdeaStatiCa.ConnHiddenCalculator)</text></g></g><g transform="translate(-174,-46) scale(1,1)"><path fill="none" stroke="#000000" d="M 902 327 L 520.975830078125 162.7312320757516" stroke-miterlimit="10"/></g><g transform="translate(-174,-46) scale(1,1)"><path fill="#ffffff" stroke="none" d="M 728 56 L 1021 56 L 1031 66 L 1031 96 L 728 96 L 728 56"/></g><g transform="translate(-174,-46) scale(1,1)"><path fill="none" stroke="#000000" d="M 728 56 L 1021 56 L 1031 66 L 1031 96 L 728 96 L 728 56 L 728 56" stroke-miterlimit="10"/></g><g transform="translate(-174,-46) scale(1,1)"><path fill="none" stroke="#000000" d="M 1021 56 L 1021 66 L 1031 66 L 1021 56" stroke-miterlimit="10"/></g><g transform="translate(-174,-46) scale(1,1)"><g><path fill="none" stroke="none"/><text fill="#000000" stroke="none" font-family="Arial" font-size="13px" font-style="normal" font-weight="normal" text-decoration="none" x="733" y="74">Public IDEA StatiCa API.</text></g></g><g transform="translate(-174,-46) scale(1,1)"><g><path fill="none" stroke="none"/></g></g><g transform="translate(-174,-46) scale(1,1)"><g><path fill="none" stroke="none"/><text fill="#000000" stroke="none" font-family="Arial" font-size="13px" font-style="normal" font-weight="normal" text-decoration="none" x="733" y="91">https://github.com/idea-statica/ideastatica-plugin </text></g></g><g transform="translate(-174,-46) scale(1,1)"><path fill="none" stroke="#000000" d="M 290 327 L 286.45283018867923 247" stroke-miterlimit="10"/></g><g transform="translate(-174,-46) scale(1,1)"><path fill="#C0C0C0" stroke="none" d="M 504.975830078125 162.5 C 504.975830078125 156.1487248 510.124554878125 151 516.475830078125 151 C 522.827105278125 151 527.975830078125 156.1487248 527.975830078125 162.5 C 527.975830078125 168.8512752 522.827105278125 174 516.475830078125 174 C 510.124554878125 174 504.975830078125 168.8512752 504.975830078125 162.5 Z" opacity="0.2"/></g><g transform="translate(-174,-46) scale(1,1)"><path fill="#ffffff" stroke="none" d="M 497.975830078125 155.5 C 497.975830078125 149.1487248 503.124554878125 144 509.475830078125 144 C 515.827105278125 144 520.975830078125 149.1487248 520.975830078125 155.5 C 520.975830078125 161.8512752 515.827105278125 167 509.475830078125 167 C 503.124554878125 167 497.975830078125 161.8512752 497.975830078125 155.5 Z"/></g><g transform="translate(-174,-46) scale(1,1)"><path fill="none" stroke="#000000" d="M 497.975830078125 155.5 C 497.975830078125 149.1487248 503.124554878125 144 509.475830078125 144 C 515.827105278125 144 520.975830078125 149.1487248 520.975830078125 155.5 C 520.975830078125 161.8512752 515.827105278125 167 509.475830078125 167 C 503.124554878125 167 497.975830078125 161.8512752 497.975830078125 155.5 Z" stroke-miterlimit="10"/></g><g transform="translate(-174,-46) scale(1,1)"><g><path fill="none" stroke="none"/><text fill="#000000" stroke="none" font-family="Arial" font-size="13px" font-style="normal" font-weight="bold" text-decoration="none" x="453.108642578125" y="186.5">IConnHiddenCheck</text></g></g><g transform="translate(-174,-46) scale(1,1)"><g><path fill="none" stroke="none"/><text fill="#000000" stroke="none" font-family="Arial" font-size="13px" font-style="normal" font-weight="normal" text-decoration="none" x="436.5" y="201.5">(from IdeaStatiCa.Plugin)</text></g></g><g transform="translate(-174,-46) scale(1,1)"><path fill="none" stroke="#000000" d="M 827 98 L 665 165" stroke-miterlimit="10" stroke-dasharray="3"/></g><g transform="translate(-174,-46) scale(1,1)"><rect fill="#C0C0C0" stroke="none" x="447" y="343" width="199.67724609375" height="59" opacity="0.2"/></g><g transform="translate(-174,-46) scale(1,1)"><rect fill="#ffffff" stroke="none" x="440" y="336" width="199.67724609375" height="59"/></g><g transform="translate(-174,-46) scale(1,1)"><path fill="none" stroke="#000000" d="M 440 336 L 639.67724609375 336 L 639.67724609375 395 L 440 395 L 440 336 Z Z" stroke-miterlimit="10"/></g><g transform="translate(-174,-46) scale(1,1)"><path fill="none" stroke="#000000" d="M 440 376 L 639.67724609375 376" stroke-miterlimit="10"/></g><g transform="translate(-174,-46) scale(1,1)"><path fill="none" stroke="#000000" d="M 440 386 L 639.67724609375 386" stroke-miterlimit="10"/></g><g transform="translate(-174,-46) scale(1,1)"><g><path fill="none" stroke="none"/><text fill="#000000" stroke="none" font-family="Arial" font-size="13px" font-style="normal" font-weight="bold" text-decoration="none" x="451.314208984375" y="355.5">ConnectionHiddenCheckClient</text></g></g><g transform="translate(-174,-46) scale(1,1)"><g><path fill="none" stroke="none"/><text fill="#000000" stroke="none" font-family="Arial" font-size="13px" font-style="normal" font-weight="normal" text-decoration="none" x="466.86279296875" y="370.5">(from IdeaStatiCa.Plugin)</text></g></g><g transform="translate(-174,-46) scale(1,1)"><path fill="none" stroke="#000000" d="M 534 335 L 510.1320754716981 167" stroke-miterlimit="10"/></g><g transform="translate(-174,-46) scale(1,1)"><path fill="none" stroke="#000000" d="M 641 363 L 855 359" stroke-miterlimit="10"/></g><g transform="translate(-174,-46) scale(1,1)"><path fill="none" stroke="#000000" d="M 844.9177688056863 363.39870596248574 L 855 359 L 844.7604311384908 354.9811407675296" stroke-miterlimit="10"/></g><g transform="translate(-174,-46) scale(1,1)"><path fill="none" stroke="#000000" d="M 855 359 L 641 363" stroke-miterlimit="10"/></g><g transform="translate(-174,-46) scale(1,1)"><path fill="none" stroke="#000000" d="M 651.0822311943137 358.60129403751426 L 641 363 L 651.2395688615092 367.0188592324704" stroke-miterlimit="10"/></g><g transform="translate(-174,-46) scale(1,1)"><g><path fill="none" stroke="none"/><text fill="#000000" stroke="none" font-family="Arial" font-size="13px" font-style="normal" font-weight="normal" text-decoration="none" x="657.410400390625" y="381.5">+Cross process communication</text></g></g><g transform="translate(-174,-46) scale(1,1)"><path fill="none" stroke="#000000" d="M 378 360 L 439 362" stroke-miterlimit="10" stroke-dasharray="3"/></g><g transform="translate(-174,-46) scale(1,1)"><path fill="none" stroke="#000000" d="M 428.7048402250804 365.8742334995295 L 439 362 L 428.98072593033794 357.45971948917276" stroke-miterlimit="10"/></g><g transform="translate(-174,-46) scale(1,1)"><g><path fill="none" stroke="none"/><text fill="#000000" stroke="none" font-family="Arial" font-size="13px" font-style="normal" font-weight="normal" text-decoration="none" x="381.5" y="352.5">+Creates</text></g></g><g transform="translate(-174,-46) scale(1,1)"><rect fill="#C0C0C0" stroke="none" x="231" y="591" width="108.80000000000001" height="15" opacity="0.2"/></g><g transform="translate(-174,-46) scale(1,1)"><rect fill="#C0C0C0" stroke="none" x="231" y="605" width="272" height="162" opacity="0.2"/></g><g transform="translate(-174,-46) scale(1,1)"><rect fill="#ffffff" stroke="none" x="224" y="599" width="272" height="161"/></g><g transform="translate(-174,-46) scale(1,1)"><path fill="none" stroke="#000000" d="M 224 599 L 496 599 L 496 760 L 224 760 L 224 599 Z Z" stroke-miterlimit="10"/></g><g transform="translate(-174,-46) scale(1,1)"><rect fill="#ffffff" stroke="none" x="224" y="584" width="108.80000000000001" height="15"/></g><g transform="translate(-174,-46) scale(1,1)"><path fill="none" stroke="#000000" d="M 224 584 L 332.8 584 L 332.8 599 L 224 599 L 224 584 Z Z" stroke-miterlimit="10"/></g><g transform="translate(-174,-46) scale(1,1)"><rect fill="#ffffff" stroke="none" x="224" y="598" width="272" height="162"/></g><g transform="translate(-174,-46) scale(1,1)"><path fill="none" stroke="#000000" d="M 224 598 L 496 598 L 496 760 L 224 760 L 224 598 Z Z" stroke-miterlimit="10"/></g><g transform="translate(-174,-46) scale(1,1)"><g><path fill="none" stroke="none"/><text fill="#000000" stroke="none" font-family="Arial" font-size="13px" font-style="normal" font-weight="bold" text-decoration="none" x="302.912353515625" y="618.5">ExampleApplication</text></g></g><g transform="translate(-174,-46) scale(1,1)"><rect fill="#C0C0C0" stroke="none" x="271" y="679" width="161.4453125" height="59" opacity="0.2"/></g><g transform="translate(-174,-46) scale(1,1)"><rect fill="#ffffff" stroke="none" x="264" y="672" width="161.4453125" height="59"/></g><g transform="translate(-174,-46) scale(1,1)"><path fill="none" stroke="#000000" d="M 264 672 L 425.4453125 672 L 425.4453125 731 L 264 731 L 264 672 Z Z" stroke-miterlimit="10"/></g><g transform="translate(-174,-46) scale(1,1)"><path fill="none" stroke="#000000" d="M 264 712 L 425.4453125 712" stroke-miterlimit="10"/></g><g transform="translate(-174,-46) scale(1,1)"><path fill="none" stroke="#000000" d="M 264 722 L 425.4453125 722" stroke-miterlimit="10"/></g><g transform="translate(-174,-46) scale(1,1)"><g><path fill="none" stroke="none"/><text fill="#000000" stroke="none" font-family="Arial" font-size="13px" font-style="normal" font-weight="bold" text-decoration="none" x="319.798583984375" y="691.5">Program</text></g></g><g transform="translate(-174,-46) scale(1,1)"><g><path fill="none" stroke="none"/><text fill="#000000" stroke="none" font-family="Arial" font-size="13px" font-style="normal" font-weight="normal" text-decoration="none" x="268.5" y="706.5">(from ExampleApplication)</text></g></g><g transform="translate(-174,-46) scale(1,1)"><path fill="none" stroke="#000000" d="M 374 583 L 395 449" stroke-miterlimit="10" stroke-dasharray="3"/></g><g transform="translate(-174,-46) scale(1,1)"><path fill="none" stroke="#000000" d="M 397.5853047405027 459.69187539203176 L 395 449 L 389.26778892013596 458.38838410675044" stroke-miterlimit="10"/></g><g transform="translate(-174,-46) scale(1,1)"><path fill="none" stroke="#000000" d="M 791 288 L 665 279" stroke-miterlimit="10" stroke-dasharray="3"/></g><g transform="translate(-174,-46) scale(1,1)"><path fill="none" stroke="#000000" d="M 675.4367641722762 275.5252404957619 L 665 279 L 674.8369327283004 283.9228807114221" stroke-miterlimit="10"/></g><g transform="translate(-174,-46) scale(1,1)"><path fill="none" stroke="#000000" d="M 339 671 L 297 388" stroke-miterlimit="10" stroke-dasharray="3"/></g><g transform="translate(-174,-46) scale(1,1)"><path fill="none" stroke="#000000" d="M 302.65581245956986 397.43460573750565 L 297 388 L 294.3279896484695 398.67053703809296" stroke-miterlimit="10"/></g><g transform="translate(-174,-46) scale(1,1)"><path fill="none" stroke="#000000" d="M 521 396 L 361 671" stroke-miterlimit="10"/></g><g transform="translate(-174,-46) scale(1,1)"><path fill="#FFFFFF" stroke="none" d="M 362.4722542493165 660.0989694328761 L 361 671 L 369.74923359925754 664.3328483273873 L 372.06365872268003 651.9843365703937"/></g><g transform="translate(-174,-46) scale(1,1)"><path fill="none" stroke="#000000" d="M 362.4722542493165 660.0989694328761 L 361 671 L 369.74923359925754 664.3328483273873 L 372.06365872268003 651.9843365703937 L 362.4722542493165 660.0989694328761" stroke-miterlimit="10"/></g><g transform="translate(-174,-46) scale(1,1)"><path fill="#ffffff" stroke="none" d="M 824 528 L 997 528 L 1007 538 L 1007 603 L 824 603 L 824 528"/></g><g transform="translate(-174,-46) scale(1,1)"><path fill="none" stroke="#000000" d="M 824 528 L 997 528 L 1007 538 L 1007 603 L 824 603 L 824 528 L 824 528" stroke-miterlimit="10"/></g><g transform="translate(-174,-46) scale(1,1)"><path fill="none" stroke="#000000" d="M 997 528 L 997 538 L 1007 538 L 997 528" stroke-miterlimit="10"/></g><g transform="translate(-174,-46) scale(1,1)"><g><path fill="none" stroke="none"/><text fill="#000000" stroke="none" font-family="Arial" font-size="13px" font-style="normal" font-weight="normal" text-decoration="none" x="829" y="546">It runs in own process which</text><text fill="#000000" stroke="none" font-family="Arial" font-size="13px" font-style="normal" font-weight="normal" text-decoration="none" x="829" y="559">hosts ConnectionCalcService.</text><text fill="#000000" stroke="none" font-family="Arial" font-size="13px" font-style="normal" font-weight="normal" text-decoration="none" x="829" y="572">It implements the interface</text><text fill="#000000" stroke="none" font-family="Arial" font-size="13px" font-style="normal" font-weight="normal" text-decoration="none" x="829" y="585">IConnHiddenCheck. </text></g></g><g transform="translate(-174,-46) scale(1,1)"><path fill="none" stroke="#000000" d="M 926 527 L 942 465" stroke-miterlimit="10" stroke-dasharray="3"/></g><g transform="translate(-174,-46) scale(1,1)"><path fill="#ffffff" stroke="none" d="M 640 672 L 917 672 L 927 682 L 927 747 L 640 747 L 640 672"/></g><g transform="translate(-174,-46) scale(1,1)"><path fill="none" stroke="#000000" d="M 640 672 L 917 672 L 927 682 L 927 747 L 640 747 L 640 672 L 640 672" stroke-miterlimit="10"/></g><g transform="translate(-174,-46) scale(1,1)"><path fill="none" stroke="#000000" d="M 917 672 L 917 682 L 927 682 L 917 672" stroke-miterlimit="10"/></g><g transform="translate(-174,-46) scale(1,1)"><g><path fill="none" stroke="none"/><text fill="#000000" stroke="none" font-family="Arial" font-size="13px" font-style="normal" font-weight="normal" text-decoration="none" x="645" y="690">3rd party applications uses</text><text fill="#000000" stroke="none" font-family="Arial" font-size="13px" font-style="normal" font-weight="normal" text-decoration="none" x="645" y="703">ConnHiddenClientFactory to create the instance</text><text fill="#000000" stroke="none" font-family="Arial" font-size="13px" font-style="normal" font-weight="normal" text-decoration="none" x="645" y="716">of ConnectionHiddenCheckClient which is</text><text fill="#000000" stroke="none" font-family="Arial" font-size="13px" font-style="normal" font-weight="normal" text-decoration="none" x="645" y="729">responsible for communication with</text><text fill="#000000" stroke="none" font-family="Arial" font-size="13px" font-style="normal" font-weight="normal" text-decoration="none" x="645" y="742">ConnectionCalcService. </text></g></g><g transform="translate(-174,-46) scale(1,1)"><path fill="none" stroke="#000000" d="M 639 697 L 497 684" stroke-miterlimit="10" stroke-dasharray="3"/></g><g transform="translate(-174,-46) scale(1,1)"><path fill="none" stroke="#000000" d="M 756 671 L 561 396" stroke-miterlimit="10" stroke-dasharray="3"/></g><g transform="translate(-174,-46) scale(1,1)"><rect fill="#C0C0C0" stroke="none" x="215" y="335" width="169.33544921875" height="59" opacity="0.2"/></g><g transform="translate(-174,-46) scale(1,1)"><rect fill="#ffffff" stroke="none" x="208" y="328" width="169.33544921875" height="59"/></g><g transform="translate(-174,-46) scale(1,1)"><path fill="none" stroke="#000000" d="M 208 328 L 377.33544921875 328 L 377.33544921875 387 L 208 387 L 208 328 Z Z" stroke-miterlimit="10"/></g><g transform="translate(-174,-46) scale(1,1)"><path fill="none" stroke="#000000" d="M 208 368 L 377.33544921875 368" stroke-miterlimit="10"/></g><g transform="translate(-174,-46) scale(1,1)"><path fill="none" stroke="#000000" d="M 208 378 L 377.33544921875 378" stroke-miterlimit="10"/></g><g transform="translate(-174,-46) scale(1,1)"><g><path fill="none" stroke="none"/><text fill="#000000" stroke="none" font-family="Arial" font-size="13px" font-style="normal" font-weight="bold" text-decoration="none" x="218.241455078125" y="347.5">ConnHiddenClientFactory</text></g></g><g transform="translate(-174,-46) scale(1,1)"><g><path fill="none" stroke="none"/><text fill="#000000" stroke="none" font-family="Arial" font-size="13px" font-style="normal" font-weight="normal" text-decoration="none" x="219.69189453125" y="362.5">(from IdeaStatiCa.Plugin)</text></g></g><g transform="translate(-174,-46) scale(1,1)"><path fill="#C0C0C0" stroke="none" d="M 281.67724609375 242.5 C 281.67724609375 236.1487248 286.82597089375 231 293.17724609375 231 C 299.52852129375 231 304.67724609375 236.1487248 304.67724609375 242.5 C 304.67724609375 248.8512752 299.52852129375 254 293.17724609375 254 C 286.82597089375 254 281.67724609375 248.8512752 281.67724609375 242.5 Z" opacity="0.2"/></g><g transform="translate(-174,-46) scale(1,1)"><path fill="#ffffff" stroke="none" d="M 274.67724609375 235.5 C 274.67724609375 229.1487248 279.82597089375 224 286.17724609375 224 C 292.52852129375 224 297.67724609375 229.1487248 297.67724609375 235.5 C 297.67724609375 241.8512752 292.52852129375 247 286.17724609375 247 C 279.82597089375 247 274.67724609375 241.8512752 274.67724609375 235.5 Z"/></g><g transform="translate(-174,-46) scale(1,1)"><path fill="none" stroke="#000000" d="M 274.67724609375 235.5 C 274.67724609375 229.1487248 279.82597089375 224 286.17724609375 224 C 292.52852129375 224 297.67724609375 229.1487248 297.67724609375 235.5 C 297.67724609375 241.8512752 292.52852129375 247 286.17724609375 247 C 279.82597089375 247 274.67724609375 241.8512752 274.67724609375 235.5 Z" stroke-miterlimit="10"/></g><g transform="translate(-174,-46) scale(1,1)"><g><path fill="none" stroke="none"/><text fill="#000000" stroke="none" font-family="Arial" font-size="13px" font-style="normal" font-weight="bold" text-decoration="none" x="217.898681640625" y="266.5">IConnCalculatorFactory</text></g></g><g transform="translate(-174,-46) scale(1,1)"><g><path fill="none" stroke="none"/><text fill="#000000" stroke="none" font-family="Arial" font-size="13px" font-style="normal" font-weight="normal" text-decoration="none" x="213.201416015625" y="281.5">(from IdeaStatiCa.Plugin)</text></g></g></g></svg>