<?xml version="1.0" standalone="no"?>
<svg version="1.0" xmlns="http://www.w3.org/2000/svg" width="100%" height="100%" viewBox="0 0 234 30" preserveAspectRatio="xMidYMid meet">
	<defs>
		<style>.cls-1{fill:#f36e22;}</style>
	</defs>
	<title>Artboard 1</title>
	<path class="cls-1" d="M81.52,17.37a1.79,1.79,0,0,0-1.85,1.25l-.39,1a2.35,2.35,0,0,0-.12.71.89.89,0,0,0,1,1H90.43l1.41-4Z"/>
	<path class="cls-1" d="M65,8.73H56.64a5.41,5.41,0,0,0-1.53.15,1.33,1.33,0,0,0-.84.9l-.8,2.52H65.78l.66-2a1.27,1.27,0,0,0,.06-.39q0-1.17-1.47-1.17"/>
	<path class="cls-1" d="M36.67,8.73H27.21L22.75,21.35h9.4c1.32,0,2.15-.43,2.46-1.32l.18-.51c.09-.27,1.23-3.45,3.38-9.58a.55.55,0,0,0,0-.24c0-.65-.51-1-1.54-1"/>
	<path class="cls-1" d="M101.69,7.86,95,27H74.85a3.06,3.06,0,0,1-2-.6,2,2,0,0,1-.48-.48,4,4,0,0,1-.66-2.34A5.1,5.1,0,0,1,72,21.8l.84-2.41,1.74-5a3.7,3.7,0,0,1,3.81-2.7H93.81l.45-1.41a1.38,1.38,0,0,0,.09-.51c0-.7-.44-1-1.34-1H76.55l2-5.64H98.78c2.12,0,3.19,1.07,3.19,3.19a4.38,4.38,0,0,1-.28,1.58M51.91,21.35H69.1l-2,5.64H48.58a7.22,7.22,0,0,1-4.11-.93,2.73,2.73,0,0,1-1.16-2.37A9.62,9.62,0,0,1,44,20.84l.5-1.46L49.45,5c.43-1.25,1.51-1.87,3.21-1.87H70.23a4.7,4.7,0,0,1,2.64.63A2.82,2.82,0,0,1,74,6.21a9,9,0,0,1-.6,2.91l-.53,1.52-2.59,7.29H51.43l-.51,1.52a3.48,3.48,0,0,0-.22,1c0,.62.41.93,1.21.93M36.25,27h-22l2.7-7.65L22.65,3.09H41.5a4.93,4.93,0,0,1,3,.85h0a2.86,2.86,0,0,1,1.14,2.44,5.55,5.55,0,0,1-.33,1.83l-.83,2.49L39.92,24.32A3.72,3.72,0,0,1,36.25,27M11.17,27H4.63l7.5-21.21.95-2.72h6.54l-2.71,7.66L12.13,24.31ZM102.32,0H10.61L0,30H97.51L106,6a5.94,5.94,0,0,0,.33-2c0-2.67-1.32-4-4-4"/>
	<path d="M115.89,19.3l-.25,1.1c-.55,2.69.56,2.88,4.65,2.88s4.74-.75,5.3-3.47c.71-3.36-1.14-2.92-4.56-3.11-4.89-.31-8.89-.12-7.45-6.95,1.33-6.45,5.39-6.64,10.93-6.64,4.71,0,8.53.16,7.23,6.33l-.15.75h-4.43l.15-.75c.53-2.54-.46-2.63-3.57-2.63-4.4,0-5.2.43-5.72,2.94-.62,2.88-.07,3,4.4,3.26,7,.44,8.86.81,7.6,6.8-1.35,6.6-4.56,7.17-10.5,7.17-5.11,0-9.69.15-8.31-6.58l.25-1.1Z"/>
	<path d="M133,10.35h2l.77-3.73h3.88l-.77,3.73h6.19l-.65,3h-6.18l-1.76,8.43c-.28,1.5-.43,2.19,1.2,2.19,2.19,0,2.31-1.75,2.68-3.48h3.42c-1,5-2.53,6.49-6.71,6.49s-5.33-1-4.47-5.17l1.76-8.46h-2Z"/>
	<path d="M148.92,21.75c-.5,2.31.4,2.53,3,2.53,2.06,0,3.6-.18,4.1-2.53S154.86,19.4,153,19.4s-3.54,0-4,2.35m6.64,3h-.09c-1.23,2.2-3.6,2.26-5.48,2.26-3.66,0-5.88-.79-5-5.23.83-3.95,3.08-5.05,7.08-5.05,2,0,3.91,0,4.46,1.88h.12l.44-2.13c.55-2.66.55-3.6-2.68-3.6-1.7,0-3.08.16-3.54,2.29H147c1-4.79,4.28-5,8-5,5.17,0,7.14.81,6,6.32l-2.15,10.31H155Z"/>
	<path d="M164.18,10.35h2L167,6.62h3.88l-.77,3.73h6.19l-.65,3h-6.18l-1.76,8.43c-.28,1.5-.43,2.19,1.2,2.19,2.19,0,2.31-1.75,2.68-3.48H175c-1,5-2.53,6.49-6.71,6.49s-5.33-1-4.47-5.17l1.76-8.46h-2Z"/>
	<path d="M183.67,6.65h-3.88l.67-3.35h3.88Zm-4.22,20.14h-3.88L179,10.35h3.88Z"/>
	<path d="M200.13,11.16l.28-1.28C201,7.15,200,7,196.1,7c-4.46,0-5.42.75-6.37,5.36l-1.08,5.2c-1,4.7-.58,5.61,4.06,5.61,3.57,0,5.21-.13,5.88-3.48l.28-1.29h4.43L203,19.9c-1.38,7.08-5.32,6.83-11.08,7.08-8.18.31-9.08-2.41-7.72-9.27l1.11-5.39c1.57-7.52,4.8-9.21,11.6-9.21,5.76,0,9,0,7.94,6.77l-.28,1.28Z"/>
	<path d="M208.81,21.75c-.49,2.31.4,2.53,3,2.53,2.06,0,3.6-.18,4.09-2.53s-1.17-2.35-3.08-2.35-3.54,0-4,2.35m6.65,3h-.09c-1.23,2.2-3.6,2.26-5.48,2.26-3.66,0-5.88-.79-5-5.23.83-3.95,3.08-5.05,7.08-5.05,2,0,3.91,0,4.47,1.88h.12l.43-2.13c.55-2.66.55-3.6-2.68-3.6-1.69,0-3.08.16-3.54,2.29h-3.88c1-4.79,4.28-5,8-5,5.17,0,7.14.81,6,6.32l-2.16,10.31h-3.88Z"/>
	<path d="M230,7.37c.54,0,.94-.13,1.07-.75s-.55-.65-1-.65h-1.17l-.29,1.4Zm1.13,2.79h-1.09l-.64-2.08h-.95L228,10.16h-.94l1-4.9h2.33c1,0,1.82.18,1.58,1.36a1.57,1.57,0,0,1-1.61,1.46Zm1.92-2.47A2.88,2.88,0,0,0,230.2,4a4.7,4.7,0,0,0-4.38,3.68,2.86,2.86,0,0,0,2.85,3.68,4.72,4.72,0,0,0,4.39-3.68m-8.08,0a5.84,5.84,0,0,1,5.41-4.54,3.56,3.56,0,0,1,3.51,4.54,5.86,5.86,0,0,1-5.41,4.54A3.54,3.54,0,0,1,225,7.69"/>
</svg>